<mxfile host="app.diagrams.net" modified="2023-11-30T01:24:13.406Z" agent="Mozilla/5.0 (Windows NT 10.0; Win64; x64) AppleWebKit/537.36 (KHTML, like Gecko) Chrome/119.0.0.0 Safari/537.36" version="22.1.4" etag="wH3Yoba3taehiVa_4R4g" type="github">
  <diagram name="페이지-1" id="Xr4jxRICrV-NDDINeQuQ">
    <mxGraphModel>
      <root>
        <mxCell id="0" />
        <mxCell id="1" parent="0" />
      </root>
    </mxGraphModel>
  </diagram>
</mxfile>
